<svg width="16" height="22" viewBox="0 0 16 22" fill="none" xmlns="http://www.w3.org/2000/svg">
    <path d="M7.5 0V6.68731H14M7.5 0H0V20H14V6.68731M7.5 0L14 6.68731"
          transform="translate(1 1)"
          stroke="white"
          stroke-width="2"
          class="chunk-icon-stroke"/>
    <path d="M4.69194 2.89602L6.75396 5.76106C7.0958 6.23599 7.33839 6.52507 7.48174 6.62832C7.62876 6.72812 7.80152 6.78835 8 6.809V7H4.35562V6.809C4.64599 6.78835 4.83345 6.74705 4.91799 6.6851C5.00253 6.62316 5.0448 6.54744 5.0448 6.45796C5.0448 6.39602 5.03193 6.34095 5.0062 6.29277C4.95474 6.18953 4.8261 5.9968 4.62026 5.7146L3.5286 4.20206L2.38732 5.50811C2.04549 5.90388 1.87457 6.17232 1.87457 6.31342C1.87457 6.41323 1.91868 6.50615 2.00689 6.59218C2.09511 6.67822 2.22559 6.74017 2.39835 6.77802C2.47553 6.79867 2.63359 6.809 2.8725 6.809V7H0V6.809C0.327131 6.76426 0.584425 6.68166 0.771881 6.56121C1.01815 6.4029 1.36182 6.07252 1.80289 5.57006L3.28601 3.87684L1.38387 1.25959C1.07144 0.8294 0.893177 0.590216 0.84907 0.542035C0.749828 0.428466 0.652424 0.347591 0.556857 0.29941C0.461291 0.251229 0.328969 0.215093 0.15989 0.191003V0H3.87043V0.191003H3.68298C3.46979 0.191003 3.32093 0.223697 3.23639 0.289086C3.15185 0.351032 3.10958 0.430187 3.10958 0.526549C3.10958 0.602262 3.12244 0.66765 3.14817 0.722714L3.5286 1.25959L4.45486 2.58112L5.24328 1.67773C5.6476 1.21313 5.84976 0.887906 5.84976 0.702065C5.84976 0.609145 5.82035 0.523107 5.76154 0.443953C5.70641 0.364798 5.62555 0.302852 5.51895 0.258112C5.41236 0.213373 5.24696 0.191003 5.02274 0.191003V0H7.77395V0.191003C7.55709 0.194444 7.38249 0.220256 7.25017 0.268437C7.11785 0.313176 6.97634 0.399213 6.82564 0.526549C6.73007 0.609145 6.49116 0.865536 6.10889 1.29572L4.69194 2.89602Z"
          transform="translate(4 11)"
          fill="white"
          class="chunk-icon-fill"/>
</svg>
