<svg width="20" height="20" viewBox="0 0 20 20" fill="none" xmlns="http://www.w3.org/2000/svg">
    <ellipse cx="9" cy="3" rx="9" ry="3" transform="translate(1 1)" stroke="white" stroke-width="2"/>
    <path d="M0 0C0 0.851562 0.519531 1.50391 1.08984 1.95312C1.66797 2.41016 2.44531 2.7793 3.32031 3.07031C5.07422 3.6543 7.4375 4 10 4C12.5625 4 14.9258 3.6543 16.6797 3.07031C17.5547 2.7793 18.332 2.41016 18.9102 1.95312C19.4805 1.50391 20 0.851562 20 0L17.9961 0.015625L17.9648 0.0820312C17.9219 0.150391 17.8359 0.253906 17.6719 0.382812C17.3438 0.642578 16.8047 0.919922 16.0469 1.17188C14.5469 1.67383 12.4062 2 10 2C7.59375 2 5.45312 1.67383 3.95312 1.17188C3.19531 0.919922 2.65625 0.642578 2.32812 0.382812C2.16406 0.253906 2.07812 0.150391 2.03516 0.0820312L2 0H0Z" transform="translate(0 16)" fill="white"/>
    <path d="M0 0C0 0.851562 0.519531 1.50391 1.08984 1.95312C1.66797 2.41016 2.44531 2.7793 3.32031 3.07031C5.07422 3.6543 7.4375 4 10 4C12.5625 4 14.9258 3.6543 16.6797 3.07031C17.5547 2.7793 18.332 2.41016 18.9102 1.95312C19.4805 1.50391 20 0.851562 20 0L17.9961 0.015625L17.9648 0.0820312C17.9219 0.150391 17.8359 0.253906 17.6719 0.382812C17.3438 0.642578 16.8047 0.919922 16.0469 1.17188C14.5469 1.67383 12.4062 2 10 2C7.59375 2 5.45312 1.67383 3.95312 1.17188C3.19531 0.919922 2.65625 0.642578 2.32812 0.382812C2.16406 0.253906 2.07812 0.150391 2.03516 0.0820312L2 0H0Z" transform="translate(0 10)" fill="white"/>
    <rect width="2" height="12" transform="translate(0 4)" fill="white"/>
    <rect width="2" height="12" transform="translate(18 4)" fill="white"/>
</svg>
