<svg width="22" height="22" viewBox="0 0 22 22" fill="none" xmlns="http://www.w3.org/2000/svg">
    <path fill-rule="evenodd" clip-rule="evenodd" d="M11 22C17.0742 22 22 17.0742 22 11C22 4.92578 17.0742 0 11 0C4.92578 0 0 4.92578 0 11C0 17.0742 4.92578 22 11 22ZM11 20C15.9688 20 20 15.9707 20 11C20 6.0293 15.9688 2 11 2C6.03125 2 2 6.0293 2 11C2 15.9707 6.03125 20 11 20Z" fill="white"/>
    <circle cx="1" cy="1" r="1" transform="translate(10 15)" fill="white"/>
    <path d="M2 1C2 1.55228 1.55228 9 1 9C0.447715 9 0 1.55228 0 1C0 0.447715 0.447715 0 1 0C1.55228 0 2 0.447715 2 1Z" transform="translate(10 5)" fill="white"/>
</svg>
