<svg width="20" height="20" viewBox="0 0 20 20" fill="none" xmlns="http://www.w3.org/2000/svg">
<circle cx="10" cy="10" r="10" fill="#EFEFEF"/>
<path d="M2.02326 7.04301C2.02326 6.44713 2.1 5.97222 2.25349 5.61828C2.40698 5.26434 2.7093 4.87679 3.16047 4.45565C3.61628 4.03002 3.90465 3.7276 4.02558 3.54839C4.21163 3.27509 4.30465 2.97939 4.30465 2.66129C4.30465 2.24014 4.19535 1.9198 3.97674 1.70027C3.76279 1.47625 3.44651 1.36425 3.02791 1.36425C2.62791 1.36425 2.30465 1.47401 2.05814 1.69355C1.81628 1.9086 1.69535 2.20206 1.69535 2.57392H0C0.00930233 1.78091 0.288372 1.15367 0.837209 0.692204C1.3907 0.230735 2.12093 0 3.02791 0C3.96279 0 4.6907 0.228495 5.21163 0.685484C5.73721 1.14247 6 1.78091 6 2.60081C6 3.33109 5.64651 4.05018 4.93953 4.75806L4.0814 5.57124C3.77442 5.90726 3.61628 6.39785 3.60698 7.04301H2.02326ZM1.90465 9.13306C1.90465 8.86873 1.9907 8.65591 2.16279 8.49462C2.33488 8.32885 2.56744 8.24597 2.86047 8.24597C3.15814 8.24597 3.39302 8.33109 3.56512 8.50134C3.73721 8.66711 3.82326 8.87769 3.82326 9.13306C3.82326 9.37948 3.73953 9.58557 3.57209 9.75134C3.40465 9.91711 3.16744 10 2.86047 10C2.55349 10 2.31628 9.91711 2.14884 9.75134C1.98605 9.58557 1.90465 9.37948 1.90465 9.13306Z" transform="translate(7 5)" fill="#343434"/>
</svg>
