<svg width="20" height="20" viewBox="0 0 20 20" fill="none" xmlns="http://www.w3.org/2000/svg">
    <circle cx="10" cy="10" r="10" fill="#EFEFEF"/>
    <path d="M1.87636 10H0.109091V3.02813H1.87636V10ZM0 0.957803C0 0.682742 0.0848485 0.454342 0.254545 0.272605C0.429091 0.0908685 0.676364 0 0.996364 0C1.31636 0 1.56364 0.0908685 1.73818 0.272605C1.91273 0.454342 2 0.682742 2 0.957803C2 1.22795 1.91273 1.4539 1.73818 1.63563C1.56364 1.81246 1.31636 1.90087 0.996364 1.90087C0.676364 1.90087 0.429091 1.81246 0.254545 1.63563C0.0848485 1.4539 0 1.22795 0 0.957803Z" transform="translate(9 5)" fill="#343434"/>
</svg>
