<svg width="109" height="81" viewBox="0 0 109 81" fill="none" xmlns="http://www.w3.org/2000/svg">
    <path d="M0.0647928 38.0807C0.0185122 38.8677 0 39.6641 0 40.4651C0 62.8515 18.0309 81 40.2826 81C41.0786 81 41.8654 80.9767 42.6522 80.9301V71.3739C41.8747 71.4344 41.0786 71.4624 40.2826 71.4624C23.2699 71.4624 9.47826 57.5844 9.47826 40.4651C9.47826 39.6641 9.51529 38.8677 9.57082 38.0807H0.0647928Z" transform="translate(14.2168)" fill="white"/>
    <path d="M42.6522 9.55626C58.5542 10.7717 71.087 24.1468 71.087 40.4651C71.087 41.2661 71.0499 42.0624 70.9944 42.8495H80.5004C80.5467 42.0624 80.5652 41.2661 80.5652 40.4651C80.5652 18.8797 63.8024 1.23412 42.6522 0V9.55626Z" transform="translate(14.2168)" fill="white"/>
    <path d="M18.9565 0L37.913 33.3817H1.40629e-08L18.9565 0Z" transform="translate(0 9.46777)" fill="white"/>
    <path d="M18.9565 0L37.913 33.3817H1.40629e-08L18.9565 0Z" transform="translate(71.0879 71.4624) scale(1 -1)" fill="white"/>
</svg>
