<svg width="20" height="17" class="refrest-icon" viewBox="0 0 20 17" fill="none" xmlns="http://www.w3.org/2000/svg">
    <path class="refrest-icon-chunk" d="M0.015625 7.98633C0.0078125 8.15234 0 8.31836 0 8.48633C0 13.1816 3.80469 16.9863 8.5 16.9863C13.1953 16.9863 17 13.1816 17 8.48633C17 3.95898 13.4609 0.257812 9 0V2.00586C12.3555 2.26172 15 5.06445 15 8.48633C15 12.0762 12.0898 14.9863 8.5 14.9863C4.91016 14.9863 2 12.0762 2 8.48633C2 8.31836 2.00781 8.15039 2.01953 7.98633H0.015625Z" transform="translate(3 0.0136719)" fill="white"/>
    <path class="refrest-icon-chunk" d="M4 0L8 7H2.96741e-09L4 0Z" transform="translate(0 2)" fill="white"/>
</svg>
