<svg width="18" height="20" viewBox="0 0 18 20" fill="none" xmlns="http://www.w3.org/2000/svg">
    <path d="M17.3242 5C15.5957 2.01074 12.3633 0 8.66211 0C4.96094 0 1.72852 2.01074 0 5H2.41602C3.88281 3.1709 6.13672 2 8.66211 2C11.1875 2 13.4414 3.1709 14.9082 5H17.3242Z" transform="translate(0 10)" fill="#343434"/>
    <path d="M17.3242 5C15.5957 2.01074 12.3633 0 8.66211 0C4.96094 0 1.72852 2.01074 0 5H2.41602C3.88281 3.1709 6.13672 2 8.66211 2C11.1875 2 13.4414 3.1709 14.9082 5H17.3242Z" transform="translate(0 20) scale(1 -1)" fill="#343434"/>
    <circle cx="2" cy="2" r="2" transform="translate(6.66211 13)" fill="#343434"/>
    <path d="M3.98451 6.25824L6.2773 0H8L4.7529 8H3.2347L0 0H1.7165L3.98451 6.25824Z" transform="translate(5)" fill="#343434"/>
</svg>
