<svg width="35" height="35" viewBox="0 0 35 35" fill="none" xmlns="http://www.w3.org/2000/svg">
<circle cx="17.5" cy="17.5" r="16.5" stroke="#F2994A" stroke-width="2"/>
<path d="M2.60991 8.91101H0.380805L0.0650155 0H2.9257L2.60991 8.91101ZM1.49536 10.3064C1.94737 10.3064 2.3096 10.433 2.58204 10.6861C2.86068 10.9393 3 11.2631 3 11.6576C3 12.0462 2.86068 12.3671 2.58204 12.6202C2.3096 12.8734 1.94737 13 1.49536 13C1.04954 13 0.687307 12.8734 0.408669 12.6202C0.136223 12.3671 0 12.0462 0 11.6576C0 11.269 0.136223 10.9481 0.408669 10.695C0.687307 10.4359 1.04954 10.3064 1.49536 10.3064Z" transform="translate(16 11)" fill="#F2994A"/>
</svg>
